<?xml version="1.0" standalone="no"?>
<!DOCTYPE svg PUBLIC "-//W3C//DTD SVG 20010904//EN"
 "http://www.w3.org/TR/2001/REC-SVG-20010904/DTD/svg10.dtd">
<svg version="1.0" xmlns="http://www.w3.org/2000/svg"
 width="653.000000pt" height="653.000000pt" viewBox="0 0 653.000000 653.000000"
 preserveAspectRatio="xMidYMid meet">
<metadata>
Created by potrace 1.14, written by Peter Selinger 2001-2017
</metadata>
<g transform="translate(0.000000,653.000000) scale(0.100000,-0.100000)"
fill="#000000" stroke="none">
<path d="M3139 4935 c-2 -1 -35 -6 -74 -10 -38 -3 -72 -8 -75 -10 -3 -2 -21
-6 -40 -9 -73 -12 -95 -18 -189 -47 -655 -209 -1118 -808 -1157 -1495 l-6
-121 41 -7 c23 -3 46 -4 50 -2 4 3 8 36 9 75 1 38 3 89 6 112 3 24 8 64 11 89
17 137 71 303 151 465 148 299 399 550 700 699 81 40 207 92 244 101 8 2 53
13 100 24 134 32 174 36 355 36 196 0 251 -6 387 -40 454 -115 820 -410 1028
-830 63 -126 118 -283 134 -376 3 -19 8 -45 11 -59 8 -40 17 -129 20 -210 2
-41 4 -78 4 -82 1 -8 72 2 86 13 10 8 11 38 1 151 -13 164 -55 343 -113 488
-174 433 -531 781 -968 943 -121 45 -177 59 -365 92 -39 7 -346 16 -351 10z"/>
<path d="M3218 4653 c-130 -127 -203 -205 -200 -215 1 -5 -1 -7 -6 -4 -5 3
-30 -17 -55 -44 -26 -28 -51 -50 -57 -50 -5 0 -10 -6 -10 -14 0 -7 -13 -23
-30 -36 -16 -13 -30 -28 -30 -35 0 -14 -216 -19 -225 -5 -5 8 12 24 26 25 3 0
101 95 219 212 117 116 206 210 199 209 -8 -2 -23 -7 -34 -11 -31 -13 -357
-343 -350 -355 4 -6 -1 -7 -11 -3 -12 4 -15 3 -10 -5 4 -7 3 -12 -3 -12 -5 0
-26 -16 -45 -35 -30 -29 -44 -35 -78 -35 l-41 0 102 99 c55 54 101 104 101
110 0 6 3 10 8 9 8 -3 212 195 212 205 0 4 -7 4 -15 1 -8 -4 -12 -11 -8 -18 5
-8 3 -8 -8 1 -12 9 -25 1 -72 -44 -31 -30 -57 -59 -57 -64 0 -5 -7 -9 -15 -9
-8 0 -15 -4 -15 -9 0 -4 -54 -61 -119 -126 -66 -65 -117 -123 -114 -128 3 -6
1 -7 -6 -3 -6 4 -14 0 -17 -8 -7 -19 -94 -23 -94 -4 0 6 3 8 6 5 4 -4 19 9 34
28 15 19 29 33 31 31 2 -1 68 62 145 141 135 136 159 172 81 119 -45 -31 -187
-173 -187 -188 0 -6 -2 -9 -5 -6 -8 7 -291 -274 -292 -288 0 -24 40 1 102 63
36 36 65 69 65 75 0 7 5 6 14 -1 24 -20 11 -60 -34 -104 -38 -38 -40 -42 -21
-45 22 -4 96 62 87 77 -3 4 0 8 7 9 47 3 85 3 106 -2 13 -3 29 -2 34 1 15 9
77 12 77 4 0 -4 -18 -24 -40 -44 -22 -20 -36 -39 -30 -42 5 -3 10 -1 10 5 0 6
5 8 10 5 14 -9 59 35 53 51 -2 7 1 15 8 20 8 4 10 3 5 -4 -5 -8 -2 -10 8 -6 9
3 14 9 12 13 -6 9 107 6 123 -3 6 -4 11 -3 11 1 0 5 18 9 40 8 22 0 40 -3 40
-7 0 -4 10 -4 23 0 12 5 40 7 62 6 55 -3 55 -3 55 -15 0 -5 -4 -7 -10 -4 -5 3
-10 1 -10 -4 0 -18 20 -13 28 7 9 23 96 27 87 4 -4 -12 -2 -12 8 -4 10 9 17 8
27 -1 10 -9 11 -9 6 1 -8 14 -7 14 52 16 23 1 42 -1 42 -5 0 -4 -15 -20 -32
-35 -18 -15 -25 -24 -14 -21 14 6 17 4 12 -8 -3 -10 -2 -13 4 -10 6 4 9 14 8
22 -2 9 3 18 11 21 9 3 11 0 6 -8 -5 -8 -4 -11 3 -6 6 4 8 14 5 23 -5 13 -2
15 11 10 9 -4 15 -3 12 2 -9 14 15 19 69 14 28 -2 59 -4 70 -3 76 4 88 2 79
-12 -4 -6 -3 -8 4 -4 5 3 12 3 15 -1 2 -5 2 -2 1 5 -4 14 26 17 121 12 11 0
34 1 52 3 18 3 44 -2 58 -9 14 -7 23 -9 20 -4 -4 6 0 10 7 11 7 0 30 2 51 3
51 3 68 -9 35 -25 -15 -6 -29 -20 -31 -31 -3 -11 -10 -17 -16 -14 -5 4 -12 2
-15 -3 -4 -5 -2 -12 3 -15 10 -7 57 32 53 45 -1 5 3 9 9 9 7 0 17 7 23 16 16
21 74 24 94 5 14 -15 14 -16 -3 -20 -25 -4 -71 -48 -51 -48 8 0 12 5 9 10 -4
6 0 8 10 4 22 -8 73 43 54 55 -12 8 33 12 83 8 31 -2 46 -15 29 -25 -8 -5 -10
-4 -5 3 12 20 -2 13 -29 -13 -26 -27 -32 -45 -15 -45 6 0 10 5 10 11 0 5 3 9
8 7 9 -5 61 49 54 56 -3 4 11 6 31 6 33 0 37 3 38 28 1 15 1 31 0 35 -1 5 2 6
7 3 15 -9 81 69 72 84 -6 10 -17 6 -45 -18 -19 -18 -33 -32 -29 -32 3 0 1 -6
-5 -14 -10 -11 -66 -14 -306 -15 -174 0 -295 4 -295 9 0 5 8 7 18 4 14 -5 15
-4 2 5 -13 10 -8 15 13 12 4 0 7 4 7 10 0 5 4 8 9 4 5 -3 12 4 16 15 3 11 10
20 14 20 8 0 215 201 239 231 10 14 10 18 -3 23 -14 5 -109 -86 -310 -295 -8
-9 -15 -20 -15 -26 0 -7 -26 -11 -65 -11 -36 0 -62 4 -59 9 3 5 14 9 25 9 11
0 17 5 14 10 -9 15 -19 12 -43 -10 -17 -16 -34 -20 -72 -19 -46 2 -63 19 -18
19 18 0 19 2 7 17 -12 14 -12 16 0 8 9 -5 20 0 33 16 11 13 16 17 12 9 -5 -8
14 8 41 35 28 28 49 54 47 58 -1 5 1 6 6 4 4 -3 59 46 122 109 92 92 112 117
100 124 -12 8 -54 -30 -195 -173 -99 -100 -179 -185 -178 -189 2 -4 -6 -10
-17 -13 -11 -4 -20 -11 -20 -16 0 -5 -22 -9 -50 -9 -29 0 -50 5 -50 11 0 5 4
7 10 4 5 -3 15 3 22 15 7 11 16 20 20 20 15 0 58 52 52 62 -5 7 -2 10 7 7 15
-5 81 56 71 66 -3 3 -1 5 5 5 15 0 243 226 236 234 -4 3 -12 6 -20 6 -20 0
-354 -342 -349 -357 3 -7 1 -13 -3 -13 -5 0 -12 6 -14 13 -3 6 -6 2 -6 -10 -1
-13 -6 -23 -12 -23 -5 0 -7 5 -3 12 4 7 3 8 -5 4 -6 -4 -9 -11 -6 -16 3 -4 -6
-15 -20 -24 -27 -18 -105 -22 -105 -6 0 6 5 9 12 8 6 -2 17 7 23 20 7 13 16
24 21 25 5 1 8 5 6 10 -1 4 4 7 12 7 8 0 25 13 39 29 14 17 28 27 31 24 3 -4
6 1 6 11 0 9 5 14 10 11 6 -3 10 -2 10 3 0 4 64 72 143 150 115 115 138 142
119 142 -17 0 -56 -32 -133 -110 -60 -61 -109 -115 -109 -120 0 -6 -3 -9 -7
-7 -10 3 -53 -40 -53 -54 0 -5 -4 -8 -9 -4 -12 7 -33 -29 -23 -39 3 -4 -2 -4
-12 0 -13 5 -17 4 -13 -3 4 -6 -3 -13 -15 -16 -12 -4 -19 -9 -15 -13 4 -4 -5
-16 -20 -27 -16 -10 -20 -17 -11 -14 12 4 15 2 12 -8 -3 -7 -14 -12 -25 -10
-11 2 -23 -3 -26 -11 -4 -11 -19 -14 -59 -13 -30 1 -54 7 -54 12 0 5 6 7 14 4
7 -3 20 2 28 11 8 10 24 23 36 31 11 8 19 18 16 23 -3 4 2 8 11 8 11 0 15 5
12 14 -3 8 1 13 11 12 9 0 16 5 15 12 -2 6 2 12 8 12 17 0 144 131 141 144 -2
6 0 8 4 3 7 -7 184 161 184 175 0 4 -10 5 -21 3 -30 -6 -293 -271 -283 -286 5
-8 3 -9 -5 -5 -15 9 -106 -79 -97 -93 4 -5 1 -13 -5 -17 -8 -5 -9 -3 -4 6 5 8
3 11 -6 8 -8 -3 -14 -10 -14 -16 0 -7 -4 -12 -8 -11 -5 0 -19 -11 -32 -25 -18
-20 -34 -26 -64 -26 -41 0 -61 13 -40 26 8 5 10 2 4 -7 -4 -8 11 5 34 29 23
24 41 39 41 35 1 -4 7 3 15 17 8 14 14 21 15 17 0 -13 30 20 30 33 0 6 5 8 10
5 6 -3 10 2 10 11 0 10 3 15 6 12 7 -8 44 28 44 43 0 5 5 7 11 4 6 -4 13 2 16
14 3 11 9 19 13 16 5 -3 11 4 15 15 3 11 10 19 14 17 4 -1 48 39 99 90 67 68
87 93 75 97 -10 4 -39 -17 -85 -61z m-630 -533 c-7 -10 -14 -17 -17 -15 -4 4
18 35 25 35 2 0 -1 -9 -8 -20z"/>
<path d="M3022 4581 c-72 -72 -128 -132 -126 -134 2 -2 -7 -10 -21 -17 -13 -7
-27 -22 -31 -32 -3 -10 -8 -17 -12 -15 -4 2 -23 -14 -43 -34 -26 -27 -33 -39
-23 -43 8 -3 21 -3 30 1 13 5 13 7 2 14 -9 6 -10 9 -1 9 7 0 22 8 34 18 20 16
29 25 56 54 6 7 62 63 125 125 184 182 185 183 161 183 -14 0 -67 -45 -151
-129z"/>
<path d="M3637 4460 c-86 -87 -157 -163 -157 -169 0 -27 31 -5 117 82 50 50
121 121 157 156 36 35 66 67 66 71 0 32 -46 -3 -183 -140z m-107 -135 c-7 -8
-17 -15 -23 -15 -6 0 -2 7 9 15 25 19 30 19 14 0z"/>
<path d="M3844 4420 c-66 -67 -118 -128 -118 -135 1 -7 -4 -11 -11 -9 -6 3
-17 -1 -23 -9 -9 -11 -7 -13 10 -12 11 1 29 11 39 23 9 12 22 22 29 22 6 0 8
5 5 10 -3 6 -1 10 5 10 6 0 56 44 110 99 81 80 97 101 86 110 -11 9 -37 -13
-132 -109z"/>
<path d="M4005 4461 c-87 -83 -174 -179 -168 -185 3 -3 -1 -6 -10 -6 -9 0 -18
-4 -21 -8 -3 -5 5 -8 16 -7 12 1 24 7 26 13 2 7 8 10 13 6 5 -3 9 2 9 11 0 9
3 14 8 11 12 -7 186 170 178 183 -11 16 -18 14 -51 -18z"/>
<path d="M2375 4403 c-79 -62 -248 -233 -229 -233 3 0 -7 -11 -22 -23 -21 -18
-24 -26 -14 -32 9 -5 11 -4 6 3 -4 7 3 16 17 23 14 6 30 22 36 36 6 13 16 21
21 18 6 -3 10 -2 10 3 0 5 55 64 122 130 67 67 120 122 118 122 -3 0 -32 -21
-65 -47z"/>
<path d="M4028 4358 c-46 -46 -84 -89 -85 -96 -5 -20 26 -14 39 8 7 11 18 20
25 20 7 0 13 7 13 15 0 8 4 15 8 15 4 0 31 22 59 49 42 40 49 52 38 61 -11 9
-31 -6 -97 -72z"/>
<path d="M4145 4356 c-16 -16 -39 -42 -51 -58 -11 -15 -23 -26 -26 -23 -2 3
-5 -2 -5 -10 0 -11 4 -12 11 -5 5 5 18 10 29 10 10 0 15 5 12 10 -3 6 -2 10 3
10 5 0 28 18 51 39 37 35 40 41 24 49 -14 6 -25 1 -48 -22z"/>
<path d="M2716 4272 c-11 -15 -13 -22 -6 -15 7 6 19 9 28 6 10 -4 13 -2 8 5
-4 7 -1 12 8 12 9 0 16 5 16 10 0 20 -36 9 -54 -18z"/>
<path d="M4227 4190 c-43 -43 -77 -84 -77 -90 0 -20 37 0 77 39 102 104 105
107 90 119 -11 10 -29 -4 -90 -68z"/>
<path d="M4306 4149 c-38 -39 -46 -53 -35 -60 9 -5 22 -1 38 14 72 66 79 75
68 86 -16 16 -17 15 -71 -40z"/>
<path d="M2737 4154 c4 -10 0 -12 -11 -8 -11 4 -16 1 -16 -11 0 -9 -4 -14 -9
-11 -4 3 -16 -3 -25 -13 -13 -14 -14 -21 -5 -27 7 -4 10 -3 5 4 -3 6 -2 13 4
17 5 3 10 0 10 -7 0 -8 5 -6 11 5 6 9 14 15 20 12 5 -4 6 2 2 11 -4 11 -2 15
4 11 6 -4 16 -1 22 7 9 10 8 15 -3 19 -10 4 -13 1 -9 -9z"/>
<path d="M3345 4161 c10 -17 -6 -40 -26 -36 -11 2 -17 0 -14 -6 4 -5 1 -9 -5
-9 -6 0 -8 -5 -4 -11 5 -8 10 -6 16 5 5 9 13 14 18 11 4 -3 15 6 24 19 13 21
14 25 0 30 -8 3 -13 2 -9 -3z"/>
<path d="M2421 4104 c-40 -41 -51 -58 -43 -66 8 -8 27 5 72 51 33 34 60 63 60
64 0 2 -8 3 -17 4 -10 0 -42 -24 -72 -53z"/>
<path d="M2839 4149 c-6 -3 -10 -10 -10 -15 1 -5 -3 -9 -7 -9 -8 0 -64 -54
-72 -70 -3 -6 -8 -9 -12 -8 -10 4 -5 -34 5 -42 4 -3 5 -2 2 1 -7 10 15 45 24
40 11 -7 43 29 34 37 -3 4 -1 7 5 7 7 0 9 7 5 18 -6 14 -4 15 9 4 12 -10 18
-9 28 3 7 8 9 15 4 15 -5 1 2 7 16 15 25 14 25 14 2 12 -12 -1 -28 -4 -33 -8z
m-39 -73 c0 -2 -7 -9 -15 -16 -13 -11 -14 -10 -9 4 5 14 24 23 24 12z"/>
<path d="M3107 4146 c-4 -9 -13 -13 -22 -10 -16 6 -21 -11 -6 -20 10 -6 47 31
39 39 -3 3 -8 -1 -11 -9z"/>
<path d="M3580 4150 c-11 -7 -11 -10 -2 -10 7 0 11 -4 7 -9 -3 -6 -13 -8 -23
-6 -11 2 -18 -3 -18 -14 0 -10 6 -18 12 -18 7 0 10 7 6 16 -3 9 -1 13 3 8 5
-4 17 0 27 10 30 27 21 44 -12 23z"/>
<path d="M3686 4139 c-14 -11 -25 -26 -23 -32 1 -7 -4 -11 -11 -9 -8 1 -11 -2
-7 -8 3 -5 -2 -10 -12 -10 -15 0 -16 -2 -3 -10 10 -6 16 -6 18 0 2 6 8 8 13 4
5 -3 8 -2 7 3 -2 5 12 22 31 39 39 35 28 55 -13 23z m19 -9 c-10 -11 -23 -20
-28 -20 -6 0 0 9 13 20 13 11 25 20 28 20 3 0 -3 -9 -13 -20z"/>
<path d="M3442 4137 c-8 -10 -6 -13 8 -14 11 -1 22 2 25 8 4 5 -2 6 -11 2 -12
-4 -15 -3 -10 5 10 16 1 15 -12 -1z"/>
<path d="M2931 4114 c-13 -13 -21 -27 -18 -31 4 -3 7 -1 7 6 0 6 8 11 17 9 10
-2 18 3 18 12 1 8 7 14 14 12 7 -1 10 2 6 8 -9 14 -17 11 -44 -16z"/>
<path d="M3050 4113 c0 -4 5 -15 10 -23 8 -13 10 -13 10 2 0 9 -4 20 -10 23
-5 3 -10 3 -10 -2z"/>
<path d="M4391 4102 c-7 -14 -6 -18 9 -18 14 0 16 3 8 13 -8 10 -7 12 5 8 8
-4 18 -2 22 4 3 7 -2 11 -14 11 -11 0 -25 -8 -30 -18z"/>
<path d="M3403 4095 c0 -8 4 -12 9 -9 5 3 6 10 3 15 -9 13 -12 11 -12 -6z"/>
<path d="M3430 4099 c0 -5 5 -7 10 -4 6 3 10 8 10 11 0 2 -4 4 -10 4 -5 0 -10
-5 -10 -11z"/>
<path d="M2508 4060 c-7 -11 -16 -20 -20 -20 -5 0 -17 -9 -29 -21 -34 -34 -8
-45 30 -13 18 14 30 29 27 32 -3 2 -1 13 5 23 13 25 2 24 -13 -1z m2 -23 c0
-2 -10 -12 -22 -23 l-23 -19 19 23 c18 21 26 27 26 19z"/>
<path d="M3246 4057 c3 -10 9 -15 12 -12 3 3 0 11 -7 18 -10 9 -11 8 -5 -6z"/>
<path d="M2063 4052 c-48 -3 -53 -5 -53 -27 0 -15 7 -26 20 -30 11 -3 20 -9
21 -13 4 -26 4 -240 1 -250 -3 -8 -15 -18 -28 -22 -19 -8 -22 -14 -16 -31 8
-20 14 -21 146 -20 178 2 219 18 232 88 9 46 -11 89 -48 104 l-30 12 26 14
c14 8 28 26 32 41 3 15 7 32 9 38 7 23 -32 70 -66 80 -19 6 -68 12 -109 13
-41 1 -77 3 -80 4 -3 1 -29 1 -57 -1z m198 -82 c36 -43 -3 -90 -75 -90 l-33 0
2 53 c1 28 3 55 4 58 3 15 87 -2 102 -21z m-11 -145 c31 -10 44 -52 26 -80
-17 -25 -35 -32 -86 -31 l-35 1 -2 55 c-1 31 3 58 10 62 12 7 53 4 87 -7z"/>
<path d="M2220 3772 c0 -5 7 -9 15 -9 8 0 12 4 9 9 -3 4 -9 8 -15 8 -5 0 -9
-4 -9 -8z"/>
<path d="M2914 4052 c-41 -2 -53 -7 -57 -21 -5 -19 5 -43 17 -42 3 1 11 1 16
1 7 0 10 -48 8 -137 -3 -121 -5 -138 -20 -137 -10 1 -18 -8 -20 -27 l-4 -28
93 -3 93 -3 0 26 c0 18 -6 28 -19 32 -16 4 -20 14 -20 60 0 59 8 68 49 57 19
-4 28 -16 38 -50 31 -106 63 -137 130 -126 38 6 59 24 64 56 3 26 -27 38 -36
14 -3 -8 -12 -14 -20 -14 -15 0 -19 10 -31 67 -3 18 -15 44 -26 58 -15 18 -17
25 -6 25 7 0 23 10 35 23 30 31 29 88 0 122 -28 31 -62 41 -153 44 -38 1 -72
3 -75 4 -3 1 -28 1 -56 -1z m187 -73 c23 -12 29 -43 15 -71 -9 -19 -21 -24
-64 -26 l-52 -3 0 55 c0 34 5 56 13 59 16 5 67 -2 88 -14z"/>
<path d="M3313 4053 c-21 -8 -16 -54 7 -60 12 -3 20 -14 21 -27 1 -33 1 -199
0 -224 -1 -15 -9 -26 -21 -29 -13 -3 -20 -14 -20 -29 l0 -24 133 0 c72 0 149
5 170 11 43 11 70 46 72 93 3 40 -8 61 -43 82 l-28 16 28 28 c31 31 38 83 15
113 -21 30 -86 45 -201 46 -60 1 -112 3 -115 5 -3 2 -12 1 -18 -1z m227 -73
c28 -15 26 -64 -2 -84 -12 -9 -39 -16 -60 -16 l-38 0 1 53 c1 28 6 55 11 58
13 8 64 2 88 -11z m10 -160 c24 -13 28 -71 6 -89 -8 -6 -36 -13 -62 -14 l-49
-2 -2 50 c-2 28 -1 55 2 62 5 14 74 10 105 -7z"/>
<path d="M3491 3937 c-8 -10 -7 -14 4 -14 8 0 12 4 9 8 -2 4 2 10 8 12 8 4 9
6 2 6 -6 1 -17 -5 -23 -12z"/>
<path d="M3810 4050 c-87 -5 -87 -5 -82 -48 1 -7 6 -11 11 -8 21 13 28 -27 26
-144 -3 -153 -1 -140 -26 -140 -15 0 -20 -5 -17 -22 3 -23 5 -23 174 -26 l170
-2 -2 52 c-2 69 -1 67 -21 63 -10 -2 -23 -4 -30 -4 -7 -1 -10 -7 -8 -13 9 -25
-12 -39 -61 -39 -85 -1 -81 -5 -80 56 1 30 6 55 11 56 28 3 61 -4 70 -14 22
-26 32 -15 33 39 0 38 -3 54 -13 54 -7 0 -15 -7 -19 -15 -6 -15 -75 -22 -77
-7 -1 4 -2 28 -3 55 l-2 47 62 0 c45 0 65 -4 75 -17 8 -9 12 -19 9 -22 -3 -3
9 -7 26 -9 l30 -3 -2 53 c-1 29 -2 55 -3 58 0 3 -38 5 -83 5 -46 0 -121 -2
-168 -5z"/>
<path d="M2560 4039 c0 -31 -122 -315 -140 -327 -11 -7 -20 -21 -20 -32 0 -18
7 -20 79 -20 70 0 79 2 76 18 -2 9 -4 20 -4 23 -1 4 -10 9 -21 12 -18 5 -18 7
-4 44 l15 39 69 1 68 0 11 -37 c14 -49 14 -50 -9 -50 -15 0 -20 -7 -20 -25 0
-25 1 -25 90 -25 87 0 90 1 90 23 0 13 -9 26 -21 32 -12 6 -28 26 -35 45 -7
19 -34 92 -60 163 l-47 127 -58 0 c-37 0 -59 -4 -59 -11z m100 -200 c0 -7 -88
-4 -96 4 -3 3 6 38 21 78 l28 71 23 -73 c13 -41 24 -77 24 -80z"/>
<path d="M4119 4048 c-10 -40 -7 -48 16 -54 l26 -6 -2 -134 c-2 -128 -3 -135
-23 -140 -15 -3 -22 -13 -22 -30 0 -24 2 -24 83 -24 46 0 86 0 91 0 4 0 7 12
7 28 0 15 -5 27 -13 27 -21 0 -27 20 -24 73 4 50 4 50 35 45 37 -6 54 -25 62
-74 9 -55 39 -96 74 -104 65 -14 111 13 111 64 0 24 -25 28 -34 6 -15 -39 -56
10 -56 66 0 11 -9 28 -20 39 -23 23 -25 30 -7 30 8 0 24 11 37 25 45 48 19
126 -51 151 -30 10 -288 21 -290 12z m244 -70 c20 -10 24 -67 5 -86 -16 -16
-108 -16 -109 1 -2 24 3 92 7 99 5 8 72 -1 97 -14z"/>
<path d="M2787 3969 c-25 -25 -26 -28 -8 -26 11 0 19 6 18 12 -1 5 3 9 8 8 6
-1 12 7 12 18 1 10 1 18 0 18 -1 -1 -15 -14 -30 -30z"/>
<path d="M2424 3982 c-5 -4 -10 -17 -10 -29 l0 -22 19 20 c19 21 12 45 -9 31z"/>
<path d="M1992 3924 c-21 -23 -54 -84 -45 -84 14 1 43 26 43 38 0 6 6 15 14
19 7 4 11 15 7 24 -5 14 -8 15 -19 3z"/>
<path d="M4110 3929 c0 -5 5 -7 10 -4 6 3 10 8 10 11 0 2 -4 4 -10 4 -5 0 -10
-5 -10 -11z"/>
<path d="M3712 3916 c4 -5 -5 -19 -19 -32 -14 -13 -21 -24 -14 -24 6 0 14 7
17 15 4 8 10 13 14 10 4 -3 10 2 14 10 3 8 0 17 -7 21 -7 4 -9 4 -5 0z"/>
<path d="M4095 3899 c-4 -6 -13 -8 -21 -5 -8 3 -13 0 -11 -7 1 -7 -5 -10 -13
-9 -8 2 -12 0 -8 -4 4 -4 3 -13 -3 -21 -22 -26 1 -13 38 22 20 19 34 35 31 35
-4 0 -10 -5 -13 -11z"/>
<path d="M2850 3892 c0 -7 -7 -12 -15 -12 -8 0 -15 -5 -15 -11 0 -5 -4 -8 -8
-5 -5 3 -9 -1 -9 -9 0 -20 1 -19 33 10 15 14 24 28 21 32 -4 3 -7 1 -7 -5z"/>
<path d="M4546 3885 c-3 -8 -12 -15 -21 -15 -8 0 -14 -3 -14 -7 3 -20 -2 -34
-11 -28 -5 3 -10 -3 -10 -14 0 -20 1 -20 20 -4 11 10 20 23 20 30 0 7 7 10 17
6 12 -5 15 -2 11 9 -4 9 -1 21 5 27 8 8 8 11 0 11 -6 0 -13 -7 -17 -15z"/>
<path d="M2433 3867 c-20 -25 -22 -34 -9 -34 8 0 12 7 8 15 -3 10 -1 13 6 8 6
-3 13 -2 16 3 10 15 -10 22 -21 8z"/>
<path d="M3279 3853 c-13 -16 -12 -17 4 -4 16 13 21 21 13 21 -2 0 -10 -8 -17
-17z"/>
<path d="M3241 3817 c-9 -12 -7 -14 9 -13 11 0 21 5 21 11 1 16 -17 17 -30 2z"/>
<path d="M1993 3805 c-7 -8 -13 -17 -13 -21 0 -3 -20 -26 -44 -49 -33 -33 -41
-46 -32 -56 8 -9 6 -10 -9 -5 -11 4 -16 4 -12 0 4 -4 1 -14 -6 -22 -9 -11 -5
-11 15 2 15 10 25 22 22 27 -3 5 0 9 5 9 6 0 11 6 11 14 0 8 8 13 17 12 10 0
18 5 19 12 1 6 2 17 3 23 0 6 8 8 17 5 13 -5 15 -2 11 13 -3 13 -1 18 8 14 10
-3 12 2 8 16 -3 12 -6 21 -7 21 0 -1 -7 -7 -13 -15z"/>
<path d="M4593 3813 c4 -6 0 -14 -9 -17 -17 -6 -9 -29 9 -23 14 4 18 35 5 44
-6 3 -8 1 -5 -4z"/>
<path d="M2834 3779 c-4 -7 -3 -9 4 -5 5 3 13 0 15 -6 4 -9 6 -10 6 -1 1 17
-16 25 -25 12z"/>
<path d="M4622 3724 c3 -5 0 -15 -8 -22 -8 -7 -14 -10 -14 -7 0 3 -81 -75
-180 -173 -99 -99 -180 -184 -180 -190 0 -6 -8 -9 -17 -7 -10 2 -20 4 -23 4
-35 7 -22 26 100 146 71 71 130 132 130 135 0 3 -8 6 -19 7 -11 1 -59 -40
-126 -108 -60 -60 -113 -109 -118 -109 -6 0 -7 -3 -4 -7 10 -9 -13 -34 -25
-27 -11 7 -48 -24 -48 -41 0 -7 14 -24 31 -38 23 -19 29 -30 24 -46 -3 -12
-10 -19 -15 -16 -4 3 -11 -2 -14 -11 -8 -22 -8 -24 9 -24 16 0 38 34 28 44
-14 14 10 4 47 -19 28 -18 38 -30 34 -42 -5 -17 -5 -17 5 -1 11 16 14 16 46
-3 19 -12 35 -23 35 -26 0 -2 -4 -1 -10 2 -5 3 -10 1 -10 -4 0 -13 13 -14 25
-2 6 6 23 4 45 -6 19 -9 53 -17 75 -19 22 -2 51 -5 65 -7 24 -3 124 27 145 44
6 4 17 3 25 -3 12 -8 12 -9 -2 -4 -11 3 -17 1 -15 -6 1 -7 -3 -12 -9 -13 -13
0 -77 -57 -121 -108 -18 -21 -33 -34 -33 -30 0 4 -8 -4 -18 -20 -10 -15 -22
-24 -25 -20 -6 6 -11 -11 -8 -29 0 -5 -3 -7 -7 -5 -4 1 -23 -10 -41 -25 -18
-16 -27 -28 -21 -28 6 0 8 -4 5 -10 -3 -5 -1 -10 4 -10 6 0 11 5 11 10 0 6 4
10 10 10 11 0 100 89 100 101 0 5 6 8 13 7 6 -2 11 3 9 10 -1 6 3 12 9 12 10
0 26 16 124 121 16 17 30 39 31 47 2 8 11 27 22 41 35 48 52 90 52 131 0 48
-29 110 -64 138 -17 13 -24 27 -21 41 3 19 2 20 -18 9 -20 -11 -66 -12 -76 -2
-3 2 14 22 37 45 39 37 50 58 36 72 -6 6 -120 -102 -117 -112 1 -4 -18 -17
-42 -30 -25 -13 -50 -37 -61 -57 -10 -19 -23 -34 -28 -34 -5 0 -7 -3 -4 -6 8
-7 -28 -44 -43 -44 -5 0 -7 -5 -3 -12 5 -8 2 -9 -9 -5 -9 3 -19 2 -23 -4 -9
-15 -52 -29 -68 -23 -10 4 19 38 91 107 271 262 300 295 271 314 -6 3 -9 2 -6
-3z m-28 -280 c9 -3 16 -10 16 -15 0 -4 -7 -6 -15 -3 -10 4 -50 -29 -121 -99
-96 -97 -109 -114 -78 -113 14 1 183 174 176 181 -3 3 2 5 11 5 9 0 22 9 30
21 15 20 16 20 42 3 24 -16 25 -19 11 -29 -9 -7 -16 -18 -16 -24 0 -7 -4 -10
-8 -7 -5 3 -44 -32 -87 -77 -111 -116 -101 -111 -180 -82 -37 13 -69 26 -72
28 -2 3 10 10 27 16 44 15 71 50 58 75 -7 13 -7 16 1 12 6 -4 11 -2 11 4 0 6
3 9 8 7 4 -3 16 7 26 21 11 14 14 22 8 18 -7 -4 -12 -2 -12 3 0 14 6 14 31 1
15 -8 22 -6 36 11 14 16 59 44 80 49 1 0 8 -3 17 -6z m116 -110 c0 -11 -9 -30
-21 -42 -11 -13 -17 -28 -13 -35 5 -8 2 -7 -9 2 -15 12 -17 12 -12 -1 3 -8 -2
-21 -12 -29 -17 -13 -17 -13 -4 6 8 11 2 7 -13 -8 -15 -16 -39 -32 -53 -38
-34 -13 -83 -11 -83 3 0 6 3 9 6 6 7 -8 134 116 134 131 0 7 4 10 8 7 5 -3 16
4 25 15 9 10 14 19 11 19 -3 0 -2 5 1 11 9 14 34 -20 35 -47z m-67 -229 c-3
-9 -8 -14 -10 -11 -3 3 -2 9 2 15 9 16 15 13 8 -4z"/>
<path d="M2597 3654 c6 -15 23 -19 23 -5 0 5 -7 11 -14 14 -10 4 -13 1 -9 -9z"/>
<path d="M3082 3655 c4 -4 3 -16 -3 -26 -5 -11 -7 -19 -5 -19 3 0 10 9 16 19
7 15 7 22 -2 27 -7 4 -10 4 -6 -1z"/>
<path d="M1960 3645 c-2 -5 -2 -13 -1 -17 0 -5 -3 -7 -7 -5 -10 2 -94 -82 -96
-98 -1 -5 -6 -17 -11 -25 -5 -9 0 -8 13 4 12 10 19 23 15 29 -4 7 0 8 11 4 14
-5 17 -3 12 8 -4 10 1 15 15 15 15 0 19 5 15 16 -3 8 -2 12 4 9 17 -10 47 29
39 51 -4 10 -8 15 -9 9z"/>
<path d="M2350 3640 c0 -5 -8 -10 -18 -10 -10 0 -62 -45 -116 -100 -54 -55
-102 -100 -106 -100 -20 0 -44 54 -24 55 10 0 74 62 118 113 19 22 19 22 0 22
-20 0 -144 -112 -144 -130 0 -6 -13 -4 -30 5 -35 18 -30 34 25 75 18 14 31 28
29 32 -2 3 2 8 8 11 7 3 2 4 -12 4 -22 -1 -110 -78 -110 -96 0 -4 -14 -8 -31
-9 -88 -7 -169 -95 -169 -184 0 -36 29 -101 63 -139 13 -14 44 -36 71 -48 33
-16 44 -26 35 -32 -7 -4 -16 -6 -19 -5 -6 3 -34 -27 -37 -41 -1 -5 5 -10 13
-10 7 0 14 7 14 15 0 9 3 13 6 9 3 -3 16 4 28 17 18 19 31 22 86 22 60 -1 133
8 150 19 3 2 7 -2 7 -10 0 -7 -11 -18 -24 -24 -14 -7 -21 -16 -17 -23 4 -6 3
-8 -3 -5 -11 7 -94 -69 -85 -78 3 -3 0 -5 -6 -5 -6 0 -33 -23 -59 -51 -26 -28
-60 -63 -75 -77 -31 -28 -35 -42 -13 -42 22 0 306 287 303 307 -2 9 3 17 10
19 7 1 8 0 2 -3 -5 -2 -7 -9 -4 -15 4 -5 14 2 24 17 10 15 19 25 21 24 8 -6
125 80 163 120 35 36 38 42 25 58 -7 10 -9 15 -5 11 8 -7 266 242 266 256 0
33 -146 -90 -257 -218 -18 -20 -33 -34 -33 -31 0 3 -24 -7 -52 -21 -52 -27
-113 -39 -102 -22 4 5 -3 4 -14 -3 -18 -11 -24 -10 -40 4 -19 17 -15 22 120
155 115 114 135 138 117 139 -17 2 -71 -45 -218 -193 -122 -122 -196 -204
-197 -217 -1 -20 -1 -20 12 -2 8 10 14 16 14 12 0 -3 15 8 34 26 18 18 32 35
30 39 -2 3 1 8 7 10 7 2 26 -9 43 -24 17 -16 36 -26 42 -24 6 2 17 0 24 -4 10
-6 6 -11 -16 -16 -16 -5 -32 -8 -36 -9 -3 0 -10 -3 -14 -7 -4 -4 -14 -2 -22 5
-12 9 -14 9 -9 0 5 -8 -5 -16 -31 -23 -45 -14 -88 -10 -84 8 1 6 -2 12 -8 12
-5 0 -10 -6 -10 -14 0 -10 -9 -13 -30 -11 -17 2 -35 7 -40 10 -5 3 32 46 81
95 55 55 88 94 83 101 -4 8 -3 9 5 5 8 -5 56 36 131 112 104 104 135 142 115
142 -3 0 -5 -4 -5 -10z m-329 -221 c16 -11 29 -25 29 -31 0 -5 8 -7 17 -4 10
4 -9 -18 -42 -48 -32 -31 -62 -56 -65 -56 -4 0 -13 -11 -20 -25 -7 -13 -18
-21 -23 -18 -6 4 -8 0 -4 -10 6 -16 5 -16 -18 -1 -30 20 -32 40 -5 56 11 7 20
18 20 25 0 7 5 13 11 13 16 0 41 28 35 39 -3 5 2 8 12 7 9 0 16 5 15 12 -2 6
4 12 12 12 8 0 15 7 15 15 0 8 -7 15 -15 15 -8 0 -15 -5 -15 -11 0 -5 -5 -7
-12 -3 -8 5 -9 2 -5 -9 5 -13 1 -17 -14 -17 -11 0 -18 -4 -15 -9 3 -5 -1 -12
-10 -15 -9 -3 -12 -11 -8 -18 4 -7 4 -10 -1 -6 -4 4 -22 -4 -38 -18 l-31 -26
-8 22 c-5 13 -3 30 4 43 7 12 12 24 13 27 0 7 45 51 45 44 0 -3 7 2 17 11 20
21 62 14 104 -16z"/>
<path d="M2571 3623 c-24 -5 -271 -244 -271 -263 0 -5 -3 -9 -7 -9 -20 3 -24
-2 -13 -16 11 -13 19 -8 62 33 104 99 266 263 257 261 -2 -1 -15 -4 -28 -6z"/>
<path d="M2800 3614 c-21 -6 -360 -348 -360 -363 0 -7 5 -9 13 -5 6 4 8 3 4
-2 -4 -4 -18 -9 -30 -9 -16 0 -21 -5 -19 -18 2 -12 -2 -17 -14 -15 -9 2 -19
-3 -22 -11 -3 -8 0 -11 7 -7 7 5 9 1 4 -10 -5 -13 -1 -12 15 4 12 12 22 26 22
31 0 5 9 11 21 14 11 3 23 15 26 26 3 12 9 21 14 21 5 0 52 42 105 93 53 50
100 94 105 95 5 2 9 9 10 15 0 7 27 36 60 65 32 28 56 52 53 52 -4 0 -1 7 6
15 12 15 9 16 -20 9z"/>
<path d="M3745 3584 c-16 -18 -31 -42 -31 -54 -1 -21 -1 -21 25 2 14 13 28 27
29 31 2 4 15 18 29 31 18 17 20 23 9 23 -9 0 -16 -5 -16 -11 0 -8 -3 -7 -8 0
-4 8 -17 0 -37 -22z"/>
<path d="M3915 3610 c3 -6 -1 -7 -9 -4 -9 3 -16 1 -16 -5 0 -6 -4 -11 -8 -11
-12 0 -261 -248 -255 -254 15 -15 73 29 179 137 133 136 143 147 119 147 -9 0
-13 -4 -10 -10z"/>
<path d="M3891 3486 c-72 -72 -131 -135 -131 -140 0 -6 5 -5 11 1 6 6 17 9 23
7 6 -2 71 56 144 129 111 111 129 133 108 133 -18 0 -59 -35 -155 -130z"/>
<path d="M4008 3480 c-106 -106 -134 -139 -121 -144 18 -7 30 3 184 159 55 54
99 105 99 113 0 12 -3 12 -17 1 -11 -10 -14 -10 -9 -1 4 6 6 12 4 11 -2 0 -65
-63 -140 -139z"/>
<path d="M4121 3469 c-83 -83 -151 -155 -151 -160 0 -27 42 5 172 134 79 78
150 150 157 160 12 15 11 17 -7 17 -12 0 -76 -56 -171 -151z"/>
<path d="M3275 3600 c-3 -5 -1 -10 4 -10 6 0 11 5 11 10 0 6 -2 10 -4 10 -3 0
-8 -4 -11 -10z"/>
<path d="M2873 3568 c-48 -23 -35 -72 29 -104 34 -17 48 -30 46 -42 -5 -26
-47 -28 -65 -3 -21 30 -39 26 -39 -9 0 -26 3 -30 25 -29 14 0 37 -2 51 -5 28
-7 66 15 75 43 10 32 -11 58 -60 77 -32 12 -45 22 -43 33 4 22 56 27 64 7 10
-27 34 -19 34 12 0 25 -3 27 -48 29 -26 0 -57 -4 -69 -9z"/>
<path d="M3038 3572 c-20 -4 -23 -13 -8 -28 15 -15 16 -122 2 -136 -21 -21
-13 -28 33 -28 33 0 45 4 45 15 0 8 -5 15 -11 15 -6 0 -9 12 -7 27 3 24 7 27
38 28 29 0 36 -4 38 -24 2 -13 -1 -28 -7 -34 -20 -20 -11 -27 34 -27 42 0 58
11 35 25 -13 8 -13 132 1 140 20 13 2 29 -35 30 -40 1 -55 -10 -37 -28 6 -6
11 -21 11 -34 0 -21 -4 -23 -37 -20 -43 3 -58 32 -28 53 13 10 13 14 3 20 -15
9 -44 12 -70 6z"/>
<path d="M3313 3561 c-67 -42 -61 -146 11 -176 63 -27 128 3 144 64 23 94 -72
163 -155 112z m95 -44 c32 -66 -23 -142 -69 -96 -23 23 -22 86 1 114 19 23 53
14 68 -18z"/>
<path d="M3500 3563 c0 -6 5 -15 10 -18 6 -3 10 -35 10 -69 0 -47 -4 -67 -17
-77 -14 -13 -13 -15 13 -20 35 -6 74 2 73 16 -1 6 -5 9 -10 8 -5 -2 -9 11 -9
27 0 28 2 30 39 30 45 0 71 20 71 55 0 25 -23 54 -43 56 -70 7 -137 3 -137 -8z
m116 -23 c17 0 19 -34 2 -47 -25 -19 -43 -9 -46 26 -3 28 -1 33 13 27 9 -3 23
-6 31 -6z"/>
<path d="M2723 3426 c-74 -76 -90 -102 -53 -88 28 11 150 131 150 148 0 28
-27 12 -97 -60z"/>
<path d="M2790 3365 c-14 -16 -3 -20 19 -6 8 5 9 11 3 15 -5 3 -15 -1 -22 -9z"/>
<path d="M3245 3328 c-48 -39 -85 -78 -85 -89 0 -4 5 -9 12 -11 14 -5 139 113
132 124 -8 13 -18 9 -59 -24z"/>
<path d="M3000 3332 c-23 -25 4 -32 33 -9 l28 22 -24 0 c-14 0 -30 -6 -37 -13z"/>
<path d="M3145 3342 c-15 -3 -75 -57 -75 -67 0 -1 9 -2 19 -1 22 1 96 62 84
69 -5 2 -17 2 -28 -1z"/>
<path d="M3395 3343 c-28 -7 -167 -145 -156 -156 5 -5 17 -5 27 1 25 14 171
162 159 161 -6 -1 -19 -3 -30 -6z"/>
<path d="M3463 3303 c-42 -40 -43 -41 -14 -30 17 6 31 15 31 20 0 4 4 6 8 3 5
-3 21 8 37 24 27 29 27 29 5 27 -13 -1 -43 -20 -67 -44z"/>
<path d="M2655 3311 c-112 -30 -233 -136 -360 -317 -38 -54 -73 -100 -77 -102
-4 -2 -8 -8 -8 -14 0 -33 -180 -214 -250 -252 -100 -54 -228 -67 -303 -31 -78
37 -146 141 -155 237 -9 109 40 169 142 172 61 1 96 -14 119 -54 20 -32 28
-115 16 -147 -18 -49 36 -10 67 47 28 53 24 161 -8 232 -27 59 -58 86 -129
115 -56 23 -223 25 -289 3 -230 -74 -333 -272 -285 -545 28 -161 148 -316 320
-414 114 -66 243 -107 455 -147 57 -10 390 -13 460 -3 36 5 83 12 105 15 119
17 378 103 485 161 98 54 135 75 140 82 3 3 27 23 53 45 26 21 63 60 81 87
l33 49 27 -40 c118 -179 479 -347 851 -396 78 -11 370 -11 463 -1 152 17 368
85 477 150 217 131 320 301 324 536 3 218 -99 360 -302 422 -124 38 -299 12
-367 -54 -58 -57 -90 -204 -60 -282 11 -28 57 -85 69 -85 3 0 5 26 3 58 -7
111 38 167 132 166 100 -1 150 -53 149 -154 -1 -109 -89 -236 -183 -264 -44
-13 -140 -13 -183 -1 -120 36 -232 137 -382 345 -164 226 -219 288 -301 336
-122 72 -305 71 -484 -2 -61 -25 -171 -85 -214 -117 -17 -13 -25 -10 -80 27
-68 46 -160 90 -251 118 -66 21 -250 33 -300 19z"/>
<path d="M4062 3285 c-16 -18 -18 -25 -7 -29 15 -5 45 18 45 34 0 20 -18 18
-38 -5z"/>
<path d="M2169 3228 c-11 -20 -10 -21 3 -11 8 7 18 10 22 6 4 -4 4 0 0 10 -8
22 -11 22 -25 -5z"/>
<path d="M4196 3175 c-11 -8 -16 -15 -10 -15 5 0 1 -7 -9 -14 -14 -11 -15 -15
-3 -19 15 -6 39 16 49 46 8 21 -1 21 -27 2z"/>
<path d="M2141 2966 c-166 -166 -211 -217 -205 -229 7 -13 49 24 207 182 108
109 197 204 197 210 0 7 4 10 9 7 5 -3 12 1 15 10 8 21 8 34 -1 34 -5 0 -104
-96 -222 -214z"/>
<path d="M1843 3135 c0 -7 6 -11 14 -8 7 3 13 6 13 8 0 2 -6 5 -13 8 -8 3 -14
-1 -14 -8z"/>
<path d="M4279 3134 c-1 -5 -1 -13 0 -17 1 -5 -2 -6 -7 -3 -5 3 -19 -6 -31
-20 -17 -19 -20 -29 -12 -37 8 -8 11 -8 11 1 0 7 4 11 8 10 4 -2 20 9 34 24
23 22 25 28 13 38 -8 7 -16 9 -16 4z"/>
<path d="M4354 3086 c-10 -11 -17 -25 -16 -29 1 -5 -1 -6 -6 -3 -11 7 -55 -39
-58 -59 -1 -8 4 -15 12 -15 8 0 14 4 14 9 0 5 9 13 21 16 11 4 18 9 16 12 -3
2 13 22 35 44 22 21 39 39 37 40 -2 0 -11 2 -20 4 -9 1 -25 -7 -35 -19z"/>
<path d="M2030 3090 c0 -5 -5 -10 -11 -10 -11 0 -129 -118 -129 -129 1 -29 25
-15 91 52 41 42 73 77 70 77 -3 0 1 5 9 10 12 8 11 10 -7 10 -13 0 -23 -4 -23
-10z"/>
<path d="M4481 3084 c-6 -11 -11 -15 -11 -10 0 12 -60 -54 -60 -66 0 -5 -3 -7
-7 -5 -5 2 -24 -13 -44 -33 -27 -27 -34 -41 -28 -51 8 -12 12 -11 23 3 7 10
15 15 19 12 3 -3 8 4 12 15 3 12 10 21 15 21 11 0 59 47 54 53 -2 2 7 10 20
17 29 15 37 32 26 50 -6 9 -10 8 -19 -6z"/>
<path d="M4510 3090 c0 -5 5 -10 10 -10 6 0 10 5 10 10 0 6 -4 10 -10 10 -5 0
-10 -4 -10 -10z"/>
<path d="M4530 2894 c-81 -81 -102 -107 -91 -114 21 -12 203 173 194 197 -5
12 -3 14 7 8 9 -5 11 -4 6 3 -4 7 -8 12 -9 12 -1 -1 -49 -48 -107 -106z"/>
<path d="M1630 2961 c0 -61 89 -335 116 -357 19 -16 89 -2 87 16 -1 13 -42
116 -50 129 -2 2 -14 -1 -28 -7 -30 -14 -29 -15 -9 33 14 35 14 44 -1 109 -19
79 -34 96 -82 96 -26 0 -33 -4 -33 -19z"/>
<path d="M4823 2968 c-5 -7 -17 -48 -28 -90 -15 -62 -16 -83 -7 -103 17 -38
15 -47 -7 -35 -23 12 -23 13 -55 -73 l-25 -67 49 0 c49 0 50 1 69 43 40 92
105 320 93 332 -11 10 -80 5 -89 -7z"/>
<path d="M4569 2809 c-76 -78 -88 -96 -64 -96 23 0 147 134 143 154 -3 14 -21
0 -79 -58z"/>
<path d="M2099 2798 c-7 -13 -20 -29 -31 -36 -10 -7 -18 -17 -18 -22 0 -16 40
23 56 53 8 15 12 27 10 27 -3 0 -11 -10 -17 -22z"/>
<path d="M2025 2730 c-3 -5 -1 -10 4 -10 6 0 11 5 11 10 0 6 -2 10 -4 10 -3 0
-8 -4 -11 -10z"/>
<path d="M2005 2700 c-3 -6 1 -7 9 -4 18 7 21 14 7 14 -6 0 -13 -4 -16 -10z"/>
<path d="M4570 2680 c0 -11 2 -20 4 -20 2 0 6 9 9 20 3 11 1 20 -4 20 -5 0 -9
-9 -9 -20z"/>
<path d="M3236 2430 c-9 -17 -22 -27 -28 -24 -7 5 -8 2 -3 -5 5 -9 15 -4 36
19 30 33 34 40 21 40 -4 0 -16 -14 -26 -30z"/>
<path d="M3161 2264 c-145 -146 -155 -154 -192 -154 -23 0 -39 5 -39 12 0 6 3
9 6 5 7 -7 239 221 239 236 1 7 7 11 14 9 7 -1 10 2 5 9 -5 8 -18 0 -39 -24
-18 -20 -35 -34 -38 -31 -6 7 -218 -197 -212 -205 2 -4 -19 -8 -47 -9 l-52 -1
50 51 c47 49 48 50 14 32 -43 -23 -40 -21 -150 -123 -49 -47 -90 -88 -90 -93
0 -4 9 -8 20 -8 12 0 47 28 85 67 49 50 65 62 65 48 0 -11 3 -30 6 -42 4 -15
2 -23 -6 -23 -6 0 -27 -17 -46 -37 -29 -31 -32 -38 -19 -45 11 -7 28 3 65 38
28 26 50 53 50 59 0 10 44 13 83 6 4 0 -22 -29 -58 -62 -36 -34 -65 -65 -65
-70 0 -27 45 0 106 64 61 63 74 72 107 73 20 1 37 -1 37 -3 0 -3 -36 -40 -81
-83 -65 -63 -77 -78 -63 -84 11 -4 26 2 42 16 80 75 131 128 122 128 -5 0 -10
5 -10 11 0 6 7 9 15 5 8 -3 15 -2 15 3 0 9 96 8 105 -1 4 -3 2 -9 -4 -13 -6
-3 -11 -1 -11 4 0 14 -24 -6 -115 -96 -70 -68 -79 -83 -48 -83 15 0 193 176
193 190 0 10 92 6 108 -4 7 -4 12 -3 12 2 0 11 90 10 106 0 6 -4 14 -4 18 0
14 13 81 10 105 -5 13 -8 21 -10 17 -5 -3 6 2 13 11 16 24 6 80 3 88 -6 12
-11 33 2 85 52 41 39 46 49 31 53 -20 5 -42 -9 -59 -38 -6 -11 -12 -14 -12 -7
0 7 -14 12 -32 12 l-33 1 35 31 c19 17 30 28 23 24 -6 -3 -13 0 -16 6 -3 9
-12 6 -30 -11 -15 -13 -24 -28 -20 -34 3 -6 1 -7 -5 -3 -7 4 -12 3 -12 -2 0
-4 -22 -9 -50 -11 l-50 -2 53 51 c28 29 47 49 40 46 -6 -3 -13 0 -16 6 -5 13
-87 -66 -87 -84 0 -5 -4 -6 -10 -3 -5 3 -10 1 -10 -4 0 -13 -77 -15 -85 -2 -3
5 0 13 6 17 8 5 9 3 4 -5 -4 -7 22 16 58 50 54 52 63 65 50 72 -11 7 -31 -6
-79 -54 -35 -34 -61 -66 -59 -70 6 -8 -30 -19 -67 -19 -33 0 -47 19 -19 27 12
3 21 12 21 21 0 8 3 13 6 10 7 -7 124 107 124 121 0 6 -9 11 -21 11 -11 0 -17
-4 -14 -10 3 -5 2 -10 -3 -10 -11 0 -133 -120 -123 -120 3 0 -5 -10 -19 -21
-14 -11 -18 -17 -10 -13 8 4 11 3 7 -1 -13 -15 -104 -18 -113 -4 -4 7 -3 10 3
6 5 -4 19 4 30 16 10 12 41 43 69 68 91 85 124 123 115 137 -6 10 -35 -13
-110 -87 -58 -59 -99 -107 -95 -113 4 -6 3 -8 -3 -5 -5 4 -19 -2 -30 -12 -21
-19 -93 -27 -93 -10 0 5 5 9 11 9 5 0 7 5 4 10 -4 6 -2 9 3 8 5 -2 44 32 87
75 43 42 82 77 86 77 5 0 9 5 9 10 0 6 16 24 35 41 33 30 44 53 28 62 -5 3
-77 -64 -162 -149z"/>
<path d="M2675 2127 c-11 -7 -23 -16 -26 -20 -3 -5 -8 -7 -10 -6 -2 2 -24 -15
-47 -37 -37 -35 -41 -42 -26 -48 21 -8 94 55 125 107 11 20 11 20 -16 4z"/>
<path d="M3753 1998 c-106 -106 -114 -117 -83 -108 24 7 67 42 137 113 57 56
103 105 103 109 0 4 -9 6 -19 5 -11 0 -72 -54 -138 -119z"/>
<path d="M3901 2024 c-40 -41 -71 -74 -68 -74 23 0 81 38 125 80 28 29 52 53
52 55 0 1 -8 5 -18 7 -12 4 -40 -18 -91 -68z"/>
<path d="M2499 2088 c0 -2 -2 -11 -4 -21 -3 -15 -1 -16 11 -6 7 6 11 15 8 20
-5 9 -13 12 -15 7z"/>
<path d="M2130 2048 c0 -4 3 -8 8 -8 4 0 21 -13 37 -28 83 -77 224 -171 352
-236 62 -30 245 -103 283 -111 8 -2 57 -13 108 -25 125 -28 193 -34 352 -34
188 0 263 9 425 51 166 43 334 116 480 210 72 46 235 174 235 183 0 3 -31 6
-69 5 -68 0 -71 -1 -138 -51 -88 -66 -171 -115 -275 -163 -71 -33 -216 -85
-268 -96 -177 -38 -191 -39 -375 -40 -214 0 -257 5 -415 45 -189 49 -370 135
-538 259 -60 44 -66 46 -133 46 -38 1 -69 -3 -69 -7z"/>
<path d="M3329 1941 c-98 -95 -115 -121 -71 -107 18 6 184 167 190 185 2 5 -1
12 -7 15 -5 4 -56 -39 -112 -93z"/>
<path d="M3580 1944 c-78 -77 -91 -94 -72 -94 16 0 51 28 110 88 49 48 86 86
83 85 -2 -2 -9 1 -15 6 -7 6 -43 -22 -106 -85z"/>
<path d="M3238 1973 c-34 -32 -77 -74 -96 -93 -32 -33 -33 -35 -13 -38 16 -3
46 20 111 85 50 48 90 91 90 96 0 21 -38 0 -92 -50z"/>
<path d="M3445 1935 c-85 -83 -94 -95 -71 -95 19 0 48 23 111 86 47 47 85 89
85 95 0 25 -36 0 -125 -86z"/>
</g>
</svg>
